<svg width="137" height="26" viewBox="0 0 137 26" fill="none" xmlns="http://www.w3.org/2000/svg">
<path d="M44.7179 15.2952C43.301 15.2952 42.0873 14.9869 41.0771 14.3702C40.0669 13.747 39.2895 12.8811 38.745 11.7725C38.2071 10.6638 37.9381 9.37804 37.9381 7.91516C37.9381 6.45227 38.2071 5.1665 38.745 4.05785C39.2895 2.9492 40.0669 2.08656 41.0771 1.46991C42.0873 0.846711 43.301 0.53511 44.7179 0.53511C46.3514 0.53511 47.7126 0.945112 48.8015 1.76512C49.8905 2.57856 50.6548 3.67737 51.0943 5.06154L48.7031 5.72082C48.4276 4.79586 47.9586 4.07425 47.296 3.55601C46.6335 3.03121 45.7741 2.7688 44.7179 2.7688C43.7667 2.7688 42.973 2.982 42.3366 3.40841C41.7069 3.83481 41.2313 4.43505 40.9098 5.20914C40.5949 5.97666 40.4342 6.87867 40.4277 7.91516C40.4277 8.95164 40.5851 9.85693 40.9 10.631C41.2214 11.3985 41.7003 11.9955 42.3366 12.4219C42.973 12.8483 43.7667 13.0615 44.7179 13.0615C45.7741 13.0615 46.6335 12.7991 47.296 12.2743C47.9586 11.7495 48.4276 11.0279 48.7031 10.1095L51.0943 10.7688C50.6548 12.1529 49.8905 13.255 48.8015 14.075C47.7126 14.8885 46.3514 15.2952 44.7179 15.2952ZM58.6324 15.2952C57.2154 15.2952 56.0018 14.9869 54.9916 14.3702C53.9813 13.747 53.204 12.8811 52.6595 11.7725C52.1215 10.6638 51.8526 9.37804 51.8526 7.91516C51.8526 6.45227 52.1215 5.1665 52.6595 4.05785C53.204 2.9492 53.9813 2.08656 54.9916 1.46991C56.0018 0.846711 57.2154 0.53511 58.6324 0.53511C60.0494 0.53511 61.263 0.846711 62.2732 1.46991C63.29 2.08656 64.0674 2.9492 64.6053 4.05785C65.1498 5.1665 65.422 6.45227 65.422 7.91516C65.422 9.37804 65.1498 10.6638 64.6053 11.7725C64.0674 12.8811 63.29 13.747 62.2732 14.3702C61.263 14.9869 60.0494 15.2952 58.6324 15.2952ZM58.6324 13.0615C59.5836 13.0681 60.3741 12.8581 61.0038 12.4317C61.6402 12.0053 62.1158 11.4051 62.4306 10.631C62.7521 9.85693 62.9128 8.95164 62.9128 7.91516C62.9128 6.87867 62.7521 5.97994 62.4306 5.21898C62.1158 4.45145 61.6402 3.85449 61.0038 3.42809C60.3741 3.00169 59.5836 2.78192 58.6324 2.7688C57.6812 2.76224 56.8907 2.97216 56.2609 3.39857C55.6312 3.82497 55.1556 4.42521 54.8341 5.1993C54.5192 5.97338 54.3618 6.87867 54.3618 7.91516C54.3618 8.95164 54.5192 9.85365 54.8341 10.6212C55.149 11.3821 55.6213 11.9758 56.2511 12.4022C56.8874 12.8286 57.6812 13.0484 58.6324 13.0615ZM66.7657 15V0.830311H68.901L73.8013 10.8672L78.7017 0.830311H80.8369V15H78.6229V5.91762L74.2736 15H73.329L68.9895 5.91762V15H66.7657ZM82.9864 15V0.830311H85.1217L90.022 10.8672L94.9224 0.830311H97.0577V15H94.8437V5.91762L90.4944 15H89.5497L85.2102 5.91762V15H82.9864ZM104.914 15.2952C103.786 15.2952 102.792 15.0656 101.933 14.6064C101.08 14.1472 100.411 13.501 99.9254 12.6679C99.4465 11.8348 99.2071 10.8573 99.2071 9.73557V0.849991L101.608 0.830311V9.67653C101.608 10.2079 101.697 10.6835 101.874 11.1033C102.057 11.5232 102.303 11.8807 102.612 12.1759C102.92 12.4645 103.274 12.6843 103.674 12.8352C104.075 12.9861 104.488 13.0615 104.914 13.0615C105.354 13.0615 105.77 12.9861 106.164 12.8352C106.564 12.6777 106.918 12.4547 107.227 12.1661C107.535 11.8709 107.778 11.5133 107.955 11.0935C108.132 10.6737 108.221 10.2013 108.221 9.67653V0.830311H110.622V9.73557C110.622 10.8573 110.379 11.8348 109.893 12.6679C109.415 13.501 108.745 14.1472 107.886 14.6064C107.033 15.0656 106.043 15.2952 104.914 15.2952ZM116.161 15V3.05416H111.576V0.830311H123.118V3.05416H118.533V15H116.161Z" fill="#1C273B"/>
<path d="M124.076 15V0.830311H129.931C130.069 0.830311 130.246 0.836871 130.463 0.849991C130.679 0.856552 130.879 0.876232 131.063 0.909032C131.883 1.03367 132.558 1.30591 133.09 1.72576C133.628 2.1456 134.025 2.67696 134.28 3.31985C134.543 3.95617 134.674 4.66466 134.674 5.4453C134.674 6.59987 134.382 7.59371 133.798 8.42684C133.214 9.2534 132.319 9.76509 131.112 9.96189L130.098 10.0504H126.448V15H124.076ZM132.214 15L129.419 9.23372L131.83 8.70236L134.9 15H132.214ZM126.448 7.83644H129.833C129.964 7.83644 130.112 7.82988 130.276 7.81676C130.44 7.80363 130.59 7.77739 130.728 7.73803C131.122 7.63963 131.43 7.46579 131.653 7.21651C131.883 6.96723 132.043 6.68515 132.135 6.37027C132.234 6.05538 132.283 5.74706 132.283 5.4453C132.283 5.14354 132.234 4.83522 132.135 4.52033C132.043 4.19889 131.883 3.91353 131.653 3.66425C131.43 3.41497 131.122 3.24113 130.728 3.14273C130.59 3.10337 130.44 3.08041 130.276 3.07385C130.112 3.06073 129.964 3.05416 129.833 3.05416H126.448V7.83644Z" fill="#0F766E"/>
<circle cx="3.44404" cy="3.44404" r="3.44404" transform="matrix(-1 -8.74228e-08 -8.74228e-08 1 6.88806 3.30469)" fill="#006C49"/>
<line x1="22.5801" y1="7.11195" x2="9.37794" y2="7.11195" stroke="#006C49" stroke-width="0.727808"/>
<circle cx="3.11244" cy="3.11244" r="2.78481" transform="matrix(-1 -8.74228e-08 -8.74228e-08 1 31.2949 3.63574)" stroke="#006C49" stroke-width="0.65525"/>
<ellipse cx="0.9866" cy="0.986601" rx="0.9866" ry="0.986601" transform="matrix(-1 -8.74228e-08 -8.74228e-08 1 29.3219 5.6084)" fill="#006C49"/>
<path d="M28.5203 24.8525L27.5245 21.1837H28.0853L28.8295 24.2393L29.6838 21.1837H30.2656L31.0937 24.2498L31.8484 21.1837H32.4092L31.3977 24.8525H30.7845L29.9616 21.9332L29.1178 24.8525H28.5203ZM34.2482 24.8525V21.1837H36.5648V21.6135H34.7723V22.7875H36.4076V23.2068H34.7723V24.4228H36.5648V24.8525H34.2482ZM42.8077 24.9154C42.4618 24.9154 42.1596 24.8368 41.901 24.6796C41.6424 24.5223 41.4415 24.3022 41.2983 24.0192C41.155 23.7362 41.0834 23.406 41.0834 23.0286C41.0834 22.6547 41.155 22.3245 41.2983 22.038C41.445 21.7515 41.6529 21.5279 41.922 21.3671C42.1945 21.2029 42.516 21.1208 42.8863 21.1208C43.3021 21.1208 43.6498 21.2221 43.9293 21.4248C44.2089 21.624 44.3888 21.9017 44.4692 22.2581H43.8717C43.8193 22.0555 43.7092 21.8965 43.5415 21.7812C43.3738 21.6624 43.1536 21.603 42.8811 21.603C42.6225 21.603 42.3972 21.6607 42.205 21.776C42.0163 21.8913 41.8713 22.0555 41.77 22.2686C41.6686 22.4818 41.618 22.7351 41.618 23.0286C41.618 23.3256 41.6686 23.5807 41.77 23.7938C41.8713 24.007 42.0146 24.1694 42.1997 24.2812C42.3849 24.3931 42.5981 24.449 42.8392 24.449C43.2095 24.449 43.4873 24.3424 43.6725 24.1293C43.8612 23.9161 43.9713 23.6313 44.0027 23.2749H42.9912V22.8714H44.5321V24.8525H44.0551L44.008 24.2917C43.9241 24.428 43.8263 24.5433 43.7144 24.6377C43.6061 24.7285 43.4786 24.7984 43.3318 24.8473C43.1851 24.8927 43.0104 24.9154 42.8077 24.9154ZM48.1913 24.9154C47.8384 24.9154 47.5274 24.8368 47.2583 24.6796C46.9928 24.5188 46.7831 24.297 46.6294 24.0139C46.4791 23.7274 46.404 23.3955 46.404 23.0181C46.404 22.6443 46.4791 22.3158 46.6294 22.0328C46.7831 21.7463 46.9928 21.5226 47.2583 21.3619C47.5274 21.2012 47.8384 21.1208 48.1913 21.1208C48.5512 21.1208 48.8656 21.2012 49.1347 21.3619C49.4037 21.5226 49.6116 21.7463 49.7584 22.0328C49.9086 22.3158 49.9838 22.6443 49.9838 23.0181C49.9838 23.3955 49.9086 23.7274 49.7584 24.0139C49.6116 24.297 49.4037 24.5188 49.1347 24.6796C48.8656 24.8368 48.5512 24.9154 48.1913 24.9154ZM48.1965 24.449C48.4481 24.449 48.6682 24.3913 48.8569 24.276C49.0456 24.1607 49.1906 23.9965 49.2919 23.7833C49.3967 23.5702 49.4492 23.3151 49.4492 23.0181C49.4492 22.7211 49.3967 22.466 49.2919 22.2529C49.1906 22.0398 49.0456 21.8773 48.8569 21.7655C48.6682 21.6502 48.4481 21.5925 48.1965 21.5925C47.9449 21.5925 47.7248 21.6502 47.5361 21.7655C47.3474 21.8773 47.2007 22.0398 47.0959 22.2529C46.991 22.466 46.9386 22.7211 46.9386 23.0181C46.9386 23.3151 46.991 23.5702 47.0959 23.7833C47.2007 23.9965 47.3474 24.1607 47.5361 24.276C47.7248 24.3913 47.9449 24.449 48.1965 24.449ZM55.446 24.8525V21.6135H54.3611V21.1837H57.0603V21.6135H55.9701V24.8525H55.446ZM61.2415 24.8525V21.1837H61.7656V24.8525H61.2415ZM58.9092 24.8525V21.1837H59.4333V24.8525H58.9092ZM59.3442 23.1963V22.7665H61.3568V23.1963H59.3442ZM63.8511 24.8525V21.1837H66.1677V21.6135H64.3752V22.7875H66.0104V23.2068H64.3752V24.4228H66.1677V24.8525H63.8511ZM70.8225 24.8525V21.1837H71.9494C72.3757 21.1837 72.7286 21.2588 73.0081 21.4091C73.2876 21.5593 73.4938 21.7725 73.6266 22.0485C73.7628 22.321 73.831 22.646 73.831 23.0234C73.831 23.4007 73.7628 23.7257 73.6266 23.9982C73.4938 24.2708 73.2876 24.4822 73.0081 24.6324C72.7321 24.7792 72.3792 24.8525 71.9494 24.8525H70.8225ZM71.3466 24.4123H71.9284C72.2673 24.4123 72.5364 24.3564 72.7356 24.2446C72.9347 24.1327 73.0762 23.9738 73.1601 23.7676C73.2474 23.558 73.2911 23.3099 73.2911 23.0234C73.2911 22.7334 73.2474 22.4835 73.1601 22.2739C73.0762 22.0642 72.9347 21.9035 72.7356 21.7917C72.5364 21.6799 72.2673 21.624 71.9284 21.624H71.3466V24.4123ZM75.7798 24.8525V21.1837H76.3039V24.8525H75.7798ZM79.5879 24.9154C79.3189 24.9154 79.083 24.8683 78.8804 24.7739C78.6777 24.6761 78.5205 24.5398 78.4087 24.3651C78.2968 24.1904 78.2409 23.986 78.2409 23.7519H78.7913C78.7948 23.8847 78.8262 24.007 78.8856 24.1188C78.9485 24.2271 79.0376 24.3144 79.1529 24.3808C79.2717 24.4437 79.4167 24.4752 79.5879 24.4752C79.7347 24.4752 79.8605 24.4507 79.9653 24.4018C80.0736 24.3529 80.1557 24.2865 80.2116 24.2026C80.2675 24.1153 80.2955 24.0157 80.2955 23.9039C80.2955 23.7746 80.2658 23.668 80.2064 23.5842C80.147 23.5003 80.0666 23.4322 79.9653 23.3798C79.8675 23.3239 79.7522 23.2749 79.6194 23.233C79.4901 23.1911 79.3538 23.1457 79.2106 23.0967C78.9206 23.0024 78.7039 22.8801 78.5607 22.7299C78.4209 22.5796 78.351 22.3839 78.351 22.1428C78.351 21.9367 78.3999 21.7585 78.4978 21.6082C78.5956 21.4545 78.7319 21.3357 78.9066 21.2518C79.0848 21.1645 79.2944 21.1208 79.5355 21.1208C79.7731 21.1208 79.981 21.1645 80.1592 21.2518C80.3374 21.3392 80.4772 21.4597 80.5785 21.6135C80.6798 21.7672 80.7305 21.9472 80.7305 22.1533H80.1749C80.1749 22.059 80.1505 21.9664 80.1016 21.8755C80.0526 21.7847 79.9793 21.7113 79.8814 21.6554C79.7836 21.596 79.6631 21.5663 79.5198 21.5663C79.401 21.5628 79.2944 21.582 79.2001 21.624C79.1057 21.6659 79.0324 21.727 78.98 21.8074C78.9275 21.8878 78.9013 21.9839 78.9013 22.0957C78.9013 22.2075 78.924 22.2983 78.9695 22.3682C79.0184 22.4346 79.0883 22.4923 79.1791 22.5412C79.27 22.5901 79.3748 22.6355 79.4936 22.6774C79.6159 22.7159 79.7504 22.7596 79.8972 22.8085C80.0789 22.8679 80.2396 22.9413 80.3793 23.0286C80.5226 23.1125 80.6344 23.2225 80.7148 23.3588C80.7986 23.4916 80.8406 23.6628 80.8406 23.8724C80.8406 24.0541 80.7934 24.2236 80.6991 24.3808C80.6047 24.5381 80.465 24.6674 80.2798 24.7687C80.0946 24.8665 79.864 24.9154 79.5879 24.9154ZM83.5646 24.8525V21.6135H82.4797V21.1837H85.1789V21.6135H84.0887V24.8525H83.5646ZM86.3875 24.8525L87.7345 21.1837H88.3058L89.6528 24.8525H89.092L88.0175 21.8126L86.9378 24.8525H86.3875ZM86.9955 23.9458L87.1423 23.5265H88.8666L89.0134 23.9458H86.9955ZM91.4936 24.8525V21.1837H92.0177L93.8888 23.9982V21.1837H94.413V24.8525H93.8888L92.0177 22.0433V24.8525H91.4936ZM98.106 24.9154C97.7461 24.9154 97.4351 24.8368 97.173 24.6796C96.9145 24.5188 96.7136 24.297 96.5703 24.0139C96.4305 23.7274 96.3607 23.3955 96.3607 23.0181C96.3607 22.6443 96.4305 22.3141 96.5703 22.0275C96.7136 21.741 96.9145 21.5191 97.173 21.3619C97.4351 21.2012 97.7461 21.1208 98.106 21.1208C98.5358 21.1208 98.8834 21.2239 99.149 21.43C99.418 21.6362 99.5892 21.9262 99.6626 22.3001H99.0861C99.0337 22.0834 98.9254 21.9105 98.7611 21.7812C98.6004 21.6519 98.382 21.5873 98.106 21.5873C97.8579 21.5873 97.643 21.6449 97.4613 21.7602C97.2796 21.8755 97.1399 22.0398 97.042 22.2529C96.9442 22.466 96.8953 22.7211 96.8953 23.0181C96.8953 23.3151 96.9442 23.5719 97.042 23.7886C97.1399 24.0017 97.2796 24.1659 97.4613 24.2812C97.643 24.3931 97.8579 24.449 98.106 24.449C98.382 24.449 98.6004 24.3878 98.7611 24.2655C98.9254 24.1397 99.0337 23.9703 99.0861 23.7571H99.6626C99.5892 24.1205 99.418 24.4053 99.149 24.6114C98.8834 24.8141 98.5358 24.9154 98.106 24.9154ZM101.608 24.8525V21.1837H103.924V21.6135H102.132V22.7875H103.767V23.2068H102.132V24.4228H103.924V24.8525H101.608Z" fill="#006C49"/>
<line x1="5.4418e-08" y1="16.7545" x2="135.698" y2="16.7545" stroke="#E8E8E8" stroke-width="1.24494"/>
</svg>
