<svg width="194" height="28" viewBox="0 0 194 28" fill="none" xmlns="http://www.w3.org/2000/svg">
<path d="M63.5628 25.4189C61.5519 25.4189 59.8296 24.9814 58.396 24.1063C56.9623 23.2219 55.8591 21.993 55.0864 20.4197C54.3231 18.8464 53.9414 17.0217 53.9414 14.9457C53.9414 12.8697 54.3231 11.045 55.0864 9.47171C55.8591 7.8984 56.9623 6.6742 58.396 5.7991C59.8296 4.91469 61.5519 4.47249 63.5628 4.47249C65.8808 4.47249 67.8126 5.05434 69.358 6.21803C70.9033 7.37241 71.9879 8.93176 72.6116 10.8961L69.2183 11.8317C68.8273 10.519 68.1617 9.49498 67.2214 8.75953C66.2812 8.01477 65.0616 7.64239 63.5628 7.64239C62.2129 7.64239 61.0864 7.94495 60.1834 8.55006C59.2897 9.15518 58.6148 10.007 58.1586 11.1055C57.7117 12.1947 57.4836 13.4748 57.4743 14.9457C57.4743 16.4166 57.6978 17.7013 58.1446 18.7999C58.6008 19.8891 59.2804 20.7362 60.1834 21.3414C61.0864 21.9465 62.2129 22.249 63.5628 22.249C65.0616 22.249 66.2812 21.8767 67.2214 21.1319C68.1617 20.3871 68.8273 19.3631 69.2183 18.0597L72.6116 18.9954C71.9879 20.9597 70.9033 22.5237 69.358 23.6874C67.8126 24.8417 65.8808 25.4189 63.5628 25.4189ZM83.3091 25.4189C81.2983 25.4189 79.576 24.9814 78.1424 24.1063C76.7087 23.2219 75.6055 21.993 74.8328 20.4197C74.0694 18.8464 73.6878 17.0217 73.6878 14.9457C73.6878 12.8697 74.0694 11.045 74.8328 9.47171C75.6055 7.8984 76.7087 6.6742 78.1424 5.7991C79.576 4.91469 81.2983 4.47249 83.3091 4.47249C85.32 4.47249 87.0423 4.91469 88.4759 5.7991C89.9189 6.6742 91.0221 7.8984 91.7855 9.47171C92.5582 11.045 92.9445 12.8697 92.9445 14.9457C92.9445 17.0217 92.5582 18.8464 91.7855 20.4197C91.0221 21.993 89.9189 23.2219 88.4759 24.1063C87.0423 24.9814 85.32 25.4189 83.3091 25.4189ZM83.3091 22.249C84.659 22.2583 85.7808 21.9604 86.6745 21.3553C87.5776 20.7502 88.2525 19.8984 88.6994 18.7999C89.1555 17.7013 89.3836 16.4166 89.3836 14.9457C89.3836 13.4748 89.1555 12.1994 88.6994 11.1195C88.2525 10.0303 87.5776 9.18311 86.6745 8.57799C85.7808 7.97287 84.659 7.66101 83.3091 7.64239C81.9593 7.63308 80.8375 7.93098 79.9438 8.5361C79.05 9.14122 78.3751 9.99304 77.9189 11.0916C77.4721 12.1901 77.2486 13.4748 77.2486 14.9457C77.2486 16.4166 77.4721 17.6967 77.9189 18.7859C78.3658 19.8658 79.0361 20.7083 79.9298 21.3134C80.8328 21.9185 81.9593 22.2304 83.3091 22.249ZM94.8513 25V4.89142H97.8815L104.836 19.135L111.79 4.89142H114.82V25H111.678V12.111L105.506 25H104.165L98.0072 12.111V25H94.8513ZM117.871 25V4.89142H120.901L127.855 19.135L134.809 4.89142H137.839V25H134.698V12.111L128.525 25H127.185L121.026 12.111V25H117.871ZM148.989 25.4189C147.388 25.4189 145.977 25.0931 144.758 24.4414C143.548 23.7898 142.598 22.8728 141.909 21.6905C141.23 20.5082 140.89 19.121 140.89 17.5291V4.91935L144.297 4.89142V17.4453C144.297 18.1994 144.423 18.8743 144.674 19.4701C144.935 20.066 145.284 20.5733 145.721 20.9922C146.159 21.4019 146.662 21.7137 147.23 21.9279C147.797 22.142 148.384 22.249 148.989 22.249C149.613 22.249 150.204 22.142 150.763 21.9279C151.33 21.7044 151.833 21.3879 152.271 20.9783C152.708 20.5594 153.053 20.052 153.304 19.4562C153.555 18.8604 153.681 18.1901 153.681 17.4453V4.89142H157.088V17.5291C157.088 19.121 156.744 20.5082 156.055 21.6905C155.375 22.8728 154.426 23.7898 153.206 24.4414C151.996 25.0931 150.59 25.4189 148.989 25.4189ZM164.95 25V8.04735H158.442V4.89142H174.822V8.04735H168.315V25H164.95Z" fill="#0C1133"/>
<path d="M176.182 25V4.89142H184.491C184.687 4.89142 184.938 4.90073 185.245 4.91935C185.552 4.92866 185.836 4.95659 186.097 5.00314C187.261 5.18002 188.22 5.56636 188.974 6.16217C189.737 6.75798 190.3 7.51205 190.663 8.42439C191.036 9.32741 191.222 10.3328 191.222 11.4407C191.222 13.0792 190.808 14.4895 189.979 15.6719C189.151 16.8449 187.88 17.571 186.167 17.8503L184.729 17.976H179.548V25H176.182ZM187.731 25L183.765 16.8169L187.186 16.0629L191.543 25H187.731ZM179.548 14.834H184.351C184.538 14.834 184.747 14.8247 184.98 14.8061C185.213 14.7874 185.427 14.7502 185.622 14.6944C186.181 14.5547 186.618 14.308 186.935 13.9542C187.261 13.6005 187.489 13.2002 187.619 12.7533C187.759 12.3065 187.829 11.8689 187.829 11.4407C187.829 11.0124 187.759 10.5749 187.619 10.128C187.489 9.67186 187.261 9.2669 186.935 8.91314C186.618 8.55937 186.181 8.31267 185.622 8.17303C185.427 8.11717 185.213 8.08459 184.98 8.07528C184.747 8.05666 184.538 8.04735 184.351 8.04735H179.548V14.834Z" fill="#0F766E"/>
<circle cx="4.88752" cy="4.88752" r="4.88752" transform="matrix(-1 -8.74228e-08 -8.74228e-08 1 9.77539 8.83368)" fill="#0F766E"/>
<line x1="32.0449" y1="14.2376" x2="13.3094" y2="14.2376" stroke="#0F766E" stroke-width="1.03285"/>
<circle cx="4.41694" cy="4.41694" r="3.952" transform="matrix(-1 -8.74228e-08 -8.74228e-08 1 44.4121 9.30426)" stroke="#0F766E" stroke-width="0.929883"/>
<ellipse cx="1.40011" cy="1.40011" rx="1.40011" ry="1.40011" transform="matrix(-1 -8.74228e-08 -8.74228e-08 1 41.6113 12.1044)" fill="#0F766E"/>
</svg>
