<!-- <svg width="46" height="55" viewBox="0 0 46 55" fill="none" xmlns="http://www.w3.org/2000/svg">
<g clip-path="url(#clip0)">
<path d="M19.6667 55C8.82205 55 0 46.2504 0 35.4968C0 24.7431 8.82292 15.9935 19.6667 15.9935C30.5105 15.9935 39.3334 24.7431 39.3334 35.4968C39.3334 46.2504 30.5122 55 19.6667 55ZM19.6667 17.8563C9.8587 17.8563 1.87839 25.7686 1.87839 35.4959C1.87839 45.2233 9.8587 53.1355 19.6667 53.1355C29.4747 53.1355 37.4559 45.2215 37.4559 35.4942C37.4559 25.7668 29.4765 17.8563 19.6667 17.8563Z" fill="#2196F3"/>
<path d="M33.9387 36.3618C33.3269 34.1133 27.7188 33.8706 24.3807 34.6949C22.6326 35.1283 20.846 35.6917 19.0034 36.0159C20.3521 37.2026 21.8005 38.3251 23.879 38.6042C29.0361 39.2942 32.2404 37.6898 33.9387 36.3618Z" fill="#2196F3"/>
<path d="M23.8788 38.6042C21.7959 38.3251 20.3519 37.2026 19.0032 36.016C16.9159 34.1792 15.0594 32.189 11.4154 32.9379C5.62198 34.1289 4.85978 40.9247 9.3333 45.2917C11.254 47.2864 13.7197 48.6822 16.4284 49.3079C19.137 49.9336 21.9709 49.7621 24.5828 48.8144C27.1946 47.8667 29.4709 46.1839 31.1327 43.9724C32.7945 41.7608 33.7696 39.1165 33.9385 36.3635C32.2402 37.6898 29.0358 39.2942 23.8788 38.6042Z" fill="#673AB7"/>
<path d="M26.9105 23.8962C26.1876 25.4331 32.6321 27.1381 33.4031 32.2419C33.7746 27.2178 27.8046 21.9962 26.9105 23.8962Z" fill="#2196F3"/>
<path d="M13.3649 30.3107C14.5267 29.8335 15.0784 28.5126 14.5972 27.3604C14.116 26.2083 12.784 25.6611 11.6222 26.1384C10.4604 26.6156 9.90867 27.9365 10.3899 29.0887C10.8712 30.2408 12.2031 30.7879 13.3649 30.3107Z" fill="#673AB7"/>
<path d="M18.5351 24.1103C19.0786 23.5714 19.0786 22.6977 18.5351 22.1587C17.9917 21.6198 17.1106 21.6198 16.5672 22.1587C16.0238 22.6977 16.0238 23.5714 16.5672 24.1103C17.1106 24.6492 17.9917 24.6492 18.5351 24.1103Z" fill="#2196F3"/>
<path d="M23.4513 15.2376C25.4617 9.3485 24.1103 4.64345 19.9786 2.40881C17.1544 2.97831 15.4779 4.334 14.5444 6.20544C20.0843 5.76077 23.5999 9.1994 23.4513 15.2376Z" fill="#2196F3"/>
<path d="M46.0001 10.0923C36.0487 6.55051 29.7685 7.76491 28.7808 15.8349C34.4841 21.6703 40.2286 18.8774 46.0001 10.0923Z" fill="#2196F3"/>
<path d="M38.0851 6.89635C38.5466 4.94082 38.7861 2.6299 38.8219 0C28.5017 2.27885 23.8473 6.6337 27.3584 13.9782C27.5333 14.0198 27.7011 14.0536 27.8698 14.0883C28.6905 8.34132 32.3031 6.2133 38.0851 6.89635Z" fill="#2196F3"/>
</g>
<defs>
<clipPath id="clip0">
<rect width="46" height="55" fill="white"/>
</clipPath>
</defs>
</svg> -->
<svg  width="150" height="40" viewBox="0 0 165 30" fill="none" xmlns="http://www.w3.org/2000/svg">
<path d="M117.264 14.216C115.62 14.216 114.33 13.664 113.394 12.56C112.458 11.444 111.99 9.83 111.99 7.718C111.99 6.662 112.11 5.732 112.35 4.928C112.59 4.124 112.938 3.446 113.394 2.894C113.85 2.342 114.402 1.928 115.05 1.652C115.71 1.364 116.448 1.22 117.264 1.22C118.356 1.22 119.268 1.46 120 1.94C120.744 2.42 121.326 3.128 121.746 4.064L120.036 5C119.82 4.4 119.484 3.926 119.028 3.578C118.584 3.218 117.996 3.038 117.264 3.038C116.292 3.038 115.53 3.368 114.978 4.028C114.426 4.688 114.15 5.6 114.15 6.764V8.672C114.15 9.836 114.426 10.748 114.978 11.408C115.53 12.068 116.292 12.398 117.264 12.398C118.02 12.398 118.632 12.206 119.1 11.822C119.58 11.426 119.934 10.922 120.162 10.31L121.8 11.3C121.38 12.212 120.792 12.926 120.036 13.442C119.28 13.958 118.356 14.216 117.264 14.216ZM130.67 14C130.154 14 129.758 13.856 129.482 13.568C129.206 13.268 129.038 12.89 128.978 12.434H128.888C128.708 13.022 128.378 13.466 127.898 13.766C127.418 14.066 126.836 14.216 126.152 14.216C125.18 14.216 124.43 13.964 123.902 13.46C123.386 12.956 123.128 12.278 123.128 11.426C123.128 10.49 123.464 9.788 124.136 9.32C124.82 8.852 125.816 8.618 127.124 8.618H128.816V7.826C128.816 7.25 128.66 6.806 128.348 6.494C128.036 6.182 127.55 6.026 126.89 6.026C126.338 6.026 125.888 6.146 125.54 6.386C125.192 6.626 124.898 6.932 124.658 7.304L123.488 6.242C123.8 5.714 124.238 5.282 124.802 4.946C125.366 4.598 126.104 4.424 127.016 4.424C128.228 4.424 129.158 4.706 129.806 5.27C130.454 5.834 130.778 6.644 130.778 7.7V12.398H131.768V14H130.67ZM126.71 12.722C127.322 12.722 127.826 12.59 128.222 12.326C128.618 12.05 128.816 11.684 128.816 11.228V9.878H127.16C125.804 9.878 125.126 10.298 125.126 11.138V11.462C125.126 11.882 125.264 12.2 125.54 12.416C125.828 12.62 126.218 12.722 126.71 12.722ZM133.691 14V4.64H135.653V6.44H135.743C135.875 5.96 136.151 5.54 136.571 5.18C136.991 4.82 137.573 4.64 138.317 4.64H138.839V6.53H138.065C137.285 6.53 136.685 6.656 136.265 6.908C135.857 7.16 135.653 7.532 135.653 8.024V14H133.691ZM114.582 29H112.548V16.436H117.966C119.094 16.436 119.982 16.778 120.63 17.462C121.278 18.134 121.602 19.052 121.602 20.216C121.602 21.116 121.392 21.866 120.972 22.466C120.564 23.054 119.958 23.468 119.154 23.708L121.872 29H119.604L117.084 23.924H114.582V29ZM117.822 22.214C118.338 22.214 118.74 22.082 119.028 21.818C119.316 21.542 119.46 21.152 119.46 20.648V19.784C119.46 19.28 119.316 18.896 119.028 18.632C118.74 18.356 118.338 18.218 117.822 18.218H114.582V22.214H117.822ZM127.607 29.216C126.935 29.216 126.335 29.102 125.807 28.874C125.279 28.646 124.829 28.322 124.457 27.902C124.085 27.47 123.797 26.954 123.593 26.354C123.401 25.742 123.305 25.064 123.305 24.32C123.305 23.576 123.401 22.904 123.593 22.304C123.797 21.692 124.085 21.176 124.457 20.756C124.829 20.324 125.279 19.994 125.807 19.766C126.335 19.538 126.935 19.424 127.607 19.424C128.291 19.424 128.891 19.544 129.407 19.784C129.935 20.024 130.373 20.36 130.721 20.792C131.069 21.212 131.327 21.704 131.495 22.268C131.675 22.832 131.765 23.438 131.765 24.086V24.824H125.339V25.13C125.339 25.85 125.549 26.444 125.969 26.912C126.401 27.368 127.013 27.596 127.805 27.596C128.381 27.596 128.867 27.47 129.263 27.218C129.659 26.966 129.995 26.624 130.271 26.192L131.423 27.326C131.075 27.902 130.571 28.364 129.911 28.712C129.251 29.048 128.483 29.216 127.607 29.216ZM127.607 20.954C127.271 20.954 126.959 21.014 126.671 21.134C126.395 21.254 126.155 21.422 125.951 21.638C125.759 21.854 125.609 22.112 125.501 22.412C125.393 22.712 125.339 23.042 125.339 23.402V23.528H129.695V23.348C129.695 22.628 129.509 22.052 129.137 21.62C128.765 21.176 128.255 20.954 127.607 20.954ZM133.937 29V19.64H135.899V21.188H135.989C136.193 20.684 136.499 20.264 136.907 19.928C137.327 19.592 137.897 19.424 138.617 19.424C139.577 19.424 140.321 19.742 140.849 20.378C141.389 21.002 141.659 21.896 141.659 23.06V29H139.697V23.312C139.697 21.848 139.109 21.116 137.933 21.116C137.681 21.116 137.429 21.152 137.177 21.224C136.937 21.284 136.721 21.38 136.529 21.512C136.337 21.644 136.181 21.812 136.061 22.016C135.953 22.22 135.899 22.46 135.899 22.736V29H133.937ZM146.971 29C146.287 29 145.771 28.826 145.423 28.478C145.075 28.118 144.901 27.614 144.901 26.966V21.242H143.443V19.64H144.235C144.559 19.64 144.781 19.568 144.901 19.424C145.033 19.28 145.099 19.046 145.099 18.722V17.084H146.863V19.64H148.825V21.242H146.863V27.398H148.681V29H146.971ZM157.811 29C157.295 29 156.899 28.856 156.623 28.568C156.347 28.268 156.179 27.89 156.119 27.434H156.029C155.849 28.022 155.519 28.466 155.039 28.766C154.559 29.066 153.977 29.216 153.293 29.216C152.321 29.216 151.571 28.964 151.043 28.46C150.527 27.956 150.269 27.278 150.269 26.426C150.269 25.49 150.605 24.788 151.277 24.32C151.961 23.852 152.957 23.618 154.265 23.618H155.957V22.826C155.957 22.25 155.801 21.806 155.489 21.494C155.177 21.182 154.691 21.026 154.031 21.026C153.479 21.026 153.029 21.146 152.681 21.386C152.333 21.626 152.039 21.932 151.799 22.304L150.629 21.242C150.941 20.714 151.379 20.282 151.943 19.946C152.507 19.598 153.245 19.424 154.157 19.424C155.369 19.424 156.299 19.706 156.947 20.27C157.595 20.834 157.919 21.644 157.919 22.7V27.398H158.909V29H157.811ZM153.851 27.722C154.463 27.722 154.967 27.59 155.363 27.326C155.759 27.05 155.957 26.684 155.957 26.228V24.878H154.301C152.945 24.878 152.267 25.298 152.267 26.138V26.462C152.267 26.882 152.405 27.2 152.681 27.416C152.969 27.62 153.359 27.722 153.851 27.722ZM162.83 29C162.158 29 161.654 28.832 161.318 28.496C160.994 28.148 160.832 27.668 160.832 27.056V15.68H162.794V27.398H164.09V29H162.83Z"  fill={theme.palette.grey[900]}/>
<path d="M0 4.80473C3.55721 4.80473 6.9515 4.80473 10.5087 4.80473C11.8121 10.5119 13.1155 16.2191 14.4189 21.9039C14.4732 21.9263 14.5547 21.9263 14.609 21.9486C14.7176 21.501 14.8534 21.0758 14.962 20.6282C16.2654 15.6372 17.5688 10.6462 18.8722 5.65521C19.008 5.18521 19.0352 4.7152 19.9041 4.73759C23.054 4.78235 26.2311 4.75997 29.5982 4.75997C30.9016 10.4224 32.205 16.0624 33.5899 21.9486C34.9747 16.0848 36.2781 10.4448 37.6087 4.80473C40.9758 4.80473 44.1529 4.80473 47.4929 4.80473C46.5425 7.42332 45.6192 9.93 44.6688 12.4591C42.768 17.5619 40.8401 22.6424 39.0207 27.7453C38.6677 28.7077 38.1518 29.0211 36.957 28.9763C34.2959 28.8868 31.6076 28.9315 28.9465 28.9539C28.1047 28.9539 27.7788 28.7301 27.6159 28.0363C26.4754 23.0677 25.2807 18.0991 24.0859 13.1305C24.0587 12.9514 23.9501 12.7948 23.6785 12.6157C23.2712 14.3391 22.9182 16.0624 22.4566 17.7634C21.479 21.2548 20.4743 24.7239 19.4153 28.193C19.3339 28.4839 18.7365 28.8868 18.3563 28.9092C15.315 28.9763 12.3009 28.9539 9.25962 28.9092C8.87946 28.9092 8.28206 28.5958 8.2006 28.3272C5.45802 20.561 2.76974 12.75 0 4.80473Z"  fill={theme.palette.grey[900]}/>
<path d="M50.5343 10.1538C50.5343 8.29622 50.5343 6.59525 50.5343 4.82715C60.0383 4.82715 69.488 4.82715 79.0192 4.82715C79.0192 6.57287 79.0192 8.29622 79.0192 10.1538C76.3309 10.1538 73.7241 10.221 71.1173 10.1315C69.8139 10.0867 69.5423 10.4672 69.5423 11.4743C69.5966 16.8682 69.5423 22.2844 69.5966 27.6782C69.5966 28.7078 69.2436 29.0211 67.9945 28.9763C65.3334 28.9092 62.6723 28.954 59.7939 28.954C59.7939 28.4168 59.7939 27.9916 59.7939 27.5439C59.7939 22.1501 59.7668 16.7339 59.8211 11.34C59.8211 10.4448 59.5495 10.0867 58.409 10.1315C55.8294 10.1986 53.2497 10.1538 50.5343 10.1538Z"  fill={theme.palette.grey[900]}/>
<path d="M81.843 11.3625C85.0744 11.3625 88.17 11.3625 91.4285 11.3625C91.4828 11.743 91.5371 12.1011 91.5371 12.4368C91.5371 17.5397 91.5099 22.6426 91.5643 27.7455C91.5643 28.7526 91.2112 29.0212 90.0436 28.9988C87.3553 28.9317 84.6399 28.9765 81.843 28.9765C81.843 23.0455 81.843 17.2712 81.843 11.3625Z"  fill={theme.palette.grey[900]}/>
<path d="M86.6222 8.52004C83.7167 8.52004 81.7073 6.95337 81.7073 4.71526C81.7344 2.47715 83.7167 1 86.6765 1C89.6092 1 91.5914 2.52191 91.5914 4.7824C91.6457 6.95337 89.5549 8.52004 86.6222 8.52004Z"  fill={theme.palette.grey[900]}/>
<line x1="101.25" y1="1.09278e-08" x2="101.25" y2="29" stroke="#494949" strokeWidth="0.5"/>
</svg>